PathFileType	4	(X/Y/Z)	C:/Users/opensim2020/Desktop/walking_exp_matlab/subject01_walking05_straight_02.trc																																																																																																																															
DataRate	CameraRate	NumFrames	NumMarkers	Units	OrigDataRate	OrigDataStartFrame	OrigNumFrames																																																																																																																											
100	100	6	43	mm	100	1552	205																																																																																																																											
Frame#	Time	LFHD			RFHD			LBHD			RBHD			C7			T10			CLAV			STRN			RBAK			LSHO			LUPA			LELB			LFRM			LWRA			LWRB			LFIN			RSHO			RUPA			RELB			RFRM			RWRA			RWRB			RFIN			LASI			RASI			LPSI			RPSI			LTHI			LKNE			LTIB			LANK			LHEE			LTOE			RTHI			RKNE			RTIB			RANK			RHEE			RTOE			*39			*40			*41			*42		
		X1	Y1	Z1	X2	Y2	Z2	X3	Y3	Z3	X4	Y4	Z4	X5	Y5	Z5	X6	Y6	Z6	X7	Y7	Z7	X8	Y8	Z8	X9	Y9	Z9	X10	Y10	Z10	X11	Y11	Z11	X12	Y12	Z12	X13	Y13	Z13	X14	Y14	Z14	X15	Y15	Z15	X16	Y16	Z16	X17	Y17	Z17	X18	Y18	Z18	X19	Y19	Z19	X20	Y20	Z20	X21	Y21	Z21	X22	Y22	Z22	X23	Y23	Z23	X24	Y24	Z24	X25	Y25	Z25	X26	Y26	Z26	X27	Y27	Z27	X28	Y28	Z28	X29	Y29	Z29	X30	Y30	Z30	X31	Y31	Z31	X32	Y32	Z32	X33	Y33	Z33	X34	Y34	Z34	X35	Y35	Z35	X36	Y36	Z36	X37	Y37	Z37	X38	Y38	Z38	X39	Y39	Z39	X40	Y40	Z40	X41	Y41	Z41	X42	Y42	Z42	X43	Y43	Z43
																																																																																																																																		
77	0.76	-355.53369	1674.23413	-1476.29333	-331.53943	1681.6814	-1364.92578	-468.07233	1622.49097	-1457.18481	-445.89273	1628.85181	-1338.20496	-499.48248	1435.94934	-1412.5116	-534.12946	1142.16968	-1404.49829	-354.00891	1368.36475	-1422.66736	-311.33966	1215.50305	-1430.07825	-546.9043	1241.10535	-1330.80908	-430.46463	1399.36267	-1578.26978	-480.46097	1219.65649	-1659.08606	-505.16116	1069.56665	-1659.8219	-473.44061	963.87836	-1700.70386	-388.62225	852.56769	-1713.97815	-448.32169	845.56024	-1720.87146	-402.15439	779.72144	-1748.28906	-408.28769	1397.45825	-1266.88306	-462.44589	1201.82813	-1158.02979	-461.73508	1076.60535	-1146.87341	-422.28076	963.23322	-1112.20227	-330.02567	855.24493	-1128.08362	-372.85648	853.60126	-1087.73523	-327.22638	781.17407	-1086.86682	-361.45523	938.48132	-1518.89075	-353.25522	940.5321	-1302.03076	-545.05774	944.13428	-1462.95789	-539.23932	949.90027	-1318.53564	-314.46341	621.98883	-1594.4823	-292.388	491.61261	-1587.98352	-418.79657	359.36893	-1587.47131	-548.69373	184.08672	-1535.83667	-592.85254	177.6647	-1474.23425	-458.45425	71.8386	-1557.87292	-403.836	603.8136	-1256.8125	-397.32745	446.05603	-1288.35144	-457.01935	278.89569	-1285.56079	-492.05411	77.13042	-1342.30176	-544.328	42.51586	-1392.08093	-351.98807	35.71439	-1347.88074	-347.77325	1714.55066	-1385.97266	-1973.16956	1023.29346	3101.90771	-2012.64868	1022.10583	3140.63086	NaN	NaN	NaN
78	0.77	-345.97314	1674.03064	-1476.09204	-321.84305	1681.52637	-1364.74365	-458.50012	1622.47217	-1456.68567	-436.19162	1628.92529	-1337.84497	-490.15732	1435.99524	-1412.01001	-525.02576	1142.21387	-1403.77417	-344.81244	1368.23315	-1422.38733	-302.26343	1215.36121	-1429.73218	-537.50067	1241.14661	-1330.06897	-421.47568	1399.21716	-1577.91516	-472.63831	1219.47546	-1658.05457	-498.61105	1069.64819	-1657.51477	-469.57755	963.15869	-1697.6864	-387.7518	849.43115	-1710.16833	-447.63016	844.06122	-1717.06262	-403.20102	776.55377	-1743.71387	-398.72467	1397.43213	-1266.63538	-452.83578	1202.20251	-1157.11182	-451.34225	1076.84448	-1145.35645	-409.89111	963.98663	-1110.10327	-315.80374	857.93121	-1125.73413	-358.62314	855.69592	-1085.51135	-311.20404	784.27344	-1084.07593	-352.7157	938.6604	-1518.09131	-344.67899	940.245	-1301.41541	-536.24286	944.16797	-1462.74756	-530.63531	949.90131	-1318.38647	-300.7088	623.89038	-1594.12537	-278.11707	493.328	-1586.8429	-399.70883	355.37045	-1586.49927	-522.90552	175.81087	-1533.75439	-566.5542	166.90497	-1471.92261	-427.63681	69.13059	-1557.81018	-398.92816	603.72504	-1256.60913	-394.56403	445.80188	-1288.0575	-455.30035	278.93637	-1285.27368	-491.83502	77.71418	-1342.40906	-544.35852	43.28351	-1392.24634	-352.35938	35.58871	-1347.6051	-338.28711	1714.14636	-1385.95691	-1973.07727	1023.70306	3102.00244	-2012.61011	1021.99329	3140.65649	NaN	NaN	NaN
79	0.78	-336.51929	1673.82971	-1475.98303	-312.16797	1681.26501	-1364.68115	-449.06009	1622.39893	-1456.4043	-426.5723	1628.85278	-1337.54138	-480.75797	1435.86743	-1411.44287	-515.88031	1142.19397	-1403.13513	-335.55637	1367.98718	-1422.14795	-293.22641	1215.06799	-1429.45398	-528.09259	1241.14539	-1329.37244	-412.47943	1398.93201	-1577.5564	-464.86374	1219.0918	-1657.03979	-492.00098	1069.71619	-1655.349	-465.53265	962.51538	-1694.81653	-386.79379	846.46002	-1706.40002	-446.79639	842.6344	-1713.36804	-404.11758	773.58643	-1739.22461	-389.30154	1397.48755	-1266.25977	-443.02942	1202.52722	-1156.25964	-440.89267	1077.02441	-1143.70752	-397.69434	964.87006	-1108.14575	-301.1084	860.77216	-1123.16638	-344.28635	857.34802	-1083.45142	-295.42538	787.42499	-1081.45178	-343.69107	939.34369	-1517.49182	-336.28729	939.77289	-1301.02271	-527.50604	944.10022	-1462.59656	-522.02264	949.87946	-1318.25586	-287.96472	625.87097	-1593.9364	-264.1283	494.56635	-1585.53931	-380.64526	351.02866	-1585.47559	-496.45294	167.11555	-1531.70154	-539.22992	155.42894	-1469.53528	-395.41678	66.1171	-1557.49377	-394.28995	603.65186	-1256.47009	-391.94934	445.7742	-1287.7926	-453.67816	279.3548	-1285.12646	-491.53528	78.02294	-1342.38037	-543.19293	43.86013	-1392.0813	-352.48083	35.33274	-1347.53503	-328.66083	1713.92297	-1385.81409	-1973.12097	1023.19043	3101.86499	-2012.5293	1021.9447	3140.62061	NaN	NaN	NaN
80	0.79	-326.97946	1673.50464	-1475.87354	-302.50577	1681.04016	-1364.59229	-438.86923	1621.90869	-1455.25146	-416.93274	1628.70813	-1337.34595	-471.38629	1435.75281	-1411.10754	-506.74768	1142.0907	-1402.50781	-326.29837	1367.69604	-1422.0697	-284.08514	1214.55457	-1429.31274	-518.69897	1241.0885	-1328.83923	-403.50549	1398.54358	-1577.30591	-457.10165	1218.60229	-1656.08801	-485.32889	1069.67224	-1653.31323	-461.2886	961.86157	-1692.06604	-385.63309	843.60645	-1702.67566	-445.71939	841.32098	-1709.73535	-404.76074	770.69098	-1734.72705	-379.66809	1397.21399	-1266.10876	-433.30884	1202.6405	-1155.44031	-430.44391	1077.20642	-1142.10974	-385.50809	965.64642	-1106.25671	-286.89209	863.53729	-1120.78381	-330.06775	859.23834	-1081.05579	-279.84998	790.42267	-1078.80603	-334.93378	939.41809	-1517.04236	-327.41226	939.27808	-1300.57068	-518.7207	943.90656	-1462.4812	-513.35577	949.75671	-1318.18164	-275.1795	627.46649	-1593.9021	-250.55283	495.64441	-1584.26538	-361.58682	346.45349	-1584.19373	-469.21225	158.01933	-1529.80151	-510.88049	143.66617	-1467.3092	-363.42331	63.4217	-1557.81482	-389.65536	603.49207	-1256.28162	-389.36221	445.40491	-1287.94861	-451.81143	279.86591	-1285.08057	-491.30685	78.43982	-1342.34827	-542.91394	44.50457	-1392.22839	-352.3573	35.24865	-1347.50696	-319.07687	1713.59192	-1385.79517	-1973.15137	1023.53296	3101.82397	-2012.56165	1022.02228	3140.49243	NaN	NaN	NaN
81	0.8	-317.46976	1673.15466	-1475.85254	-292.94003	1680.69019	-1364.64661	-430.16531	1621.9707	-1456.10779	-407.3923	1628.4574	-1337.22742	-461.94812	1435.43555	-1410.74756	-497.54504	1141.88696	-1401.97107	-316.96655	1367.13062	-1422.08765	-274.99002	1214.02844	-1429.24377	-509.27286	1240.9425	-1328.23657	-394.47183	1398.11438	-1577.24658	-449.31583	1217.953	-1655.21448	-478.56207	1069.53247	-1651.46545	-456.96237	961.16559	-1689.49231	-384.32199	840.87158	-1699.00403	-444.53207	840.13458	-1706.21448	-405.41449	768.30231	-1730.55884	-370.08755	1397.07886	-1265.90259	-423.55829	1202.71838	-1154.83154	-420.04904	1077.26978	-1140.69727	-373.39243	966.45221	-1104.49658	-272.79761	866.27173	-1118.50171	-316.19739	861.01251	-1079.33337	-264.48886	793.34888	-1076.33325	-326.16064	939.29633	-1516.71899	-318.71234	938.60132	-1300.29688	-509.99521	943.61591	-1462.37903	-504.75433	949.58282	-1318.10791	-263.31509	628.60974	-1593.47571	-237.53564	496.47235	-1582.95667	-342.65961	341.88455	-1582.89185	-441.30035	148.66534	-1528.19507	-481.52527	131.52264	-1465.28381	-330.68854	60.88969	-1558.33545	-384.73788	603.31927	-1256.2428	-385.93622	445.15192	-1287.42273	-450.15308	279.89651	-1285.00085	-491.07767	78.95208	-1342.42651	-542.78241	45.29322	-1392.42285	-352.31201	35.2306	-1347.50757	-309.12219	1713.58191	-1385.69788	-1973.1543	1023.6084	3101.89087	-2012.53564	1022.1969	3140.63501	NaN	NaN	NaN
82	0.81	-307.98459	1672.74951	-1475.91687	-283.32693	1680.29517	-1364.66821	-419.91559	1621.27466	-1455.09131	-397.72781	1628.06213	-1337.17688	-452.54657	1435.13855	-1410.63403	-488.353	1141.61011	-1401.51367	-307.67206	1366.56482	-1422.08496	-265.85284	1213.44666	-1429.26892	-499.87909	1240.73645	-1327.8396	-385.39548	1397.51331	-1577.26807	-442.76459	1217.15686	-1654.62488	-471.69464	1069.33386	-1649.76306	-452.42343	960.40845	-1686.96643	-382.77921	838.24103	-1695.349	-442.93088	838.95911	-1702.72241	-405.52628	765.80994	-1726.16724	-360.37759	1396.92285	-1265.85645	-413.75211	1202.67407	-1154.30457	-409.54865	1077.21326	-1139.3468	-361.43167	967.24408	-1102.85034	-258.4335	868.86401	-1116.42859	-302.35718	862.78528	-1077.56604	-249.27126	796.25378	-1074.10669	-317.37024	939.05188	-1516.60559	-310.07983	937.83411	-1300.10693	-501.27414	943.25439	-1462.31555	-496.11838	949.40356	-1318.14868	-251.62918	629.83954	-1592.9397	-225.04639	497.18726	-1581.6156	-323.89877	337.40933	-1581.7533	-412.66269	139.257	-1526.92041	-451.49609	119.60725	-1463.71777	-297.36469	58.33447	-1558.69495	-379.64246	603.10052	-1256.19214	-382.87888	444.98541	-1287.37915	-448.27121	280.26859	-1284.88403	-490.7204	79.34418	-1342.37512	-542.48846	46.07525	-1392.52124	-352.18341	35.17632	-1347.42407	-299.52304	1713.2124	-1385.77209	-1973.00537	1023.31018	3101.86182	-2012.52966	1021.98022	3140.66455	NaN	NaN	NaN
